<svg xmlns="http://www.w3.org/2000/svg" width="344" height="744" viewBox="0 0 344 744" font-family="'Times New Roman', 'Liberation Serif', 'DejaVu Serif', serif" font-size="14"><defs><marker id="arr" markerWidth="9" markerHeight="9" refX="7.5" refY="3" orient="auto"><path d="M0,0 L8,3 L0,6 Z" fill="#222"/></marker></defs><rect width="100%" height="100%" fill="#ffffff"/><path d="M172.0 86.0 L172.0 130.0" fill="none" stroke="#222" stroke-width="1.5" marker-end="url(#arr)"/><path d="M172.0 176.0 L172.0 220.0" fill="none" stroke="#222" stroke-width="1.5" marker-end="url(#arr)"/><path d="M172.0 266.0 L172.0 310.0" fill="none" stroke="#222" stroke-width="1.5" marker-end="url(#arr)"/><path d="M172.0 360.0 L172.0 404.0" fill="none" stroke="#222" stroke-width="1.5" marker-end="url(#arr)"/><path d="M172.0 450.0 L172.0 472.0 L300.0 472.0 L300.0 288.0 L172.0 288.0" fill="none" stroke="#222" stroke-width="1.5"/><path d="M82.0 335.0 L44.0 335.0 L44.0 494.0 L172.0 494.0" fill="none" stroke="#222" stroke-width="1.5"/><path d="M172.0 494.0 L172.0 538.0" fill="none" stroke="#222" stroke-width="1.5" marker-end="url(#arr)"/><path d="M172.0 584.0 L172.0 628.0" fill="none" stroke="#222" stroke-width="1.5" marker-end="url(#arr)"/><rect x="107.0" y="44.0" width="130.0" height="42.0" rx="21.0" fill="#fdfdfd" stroke="#222" stroke-width="1.5"/><text x="172.0" y="69.5" text-anchor="middle" fill="#111">Start</text><polygon points="125.4,130.0 237.0,130.0 218.6,176.0 107.0,176.0" fill="#fdfdfd" stroke="#222" stroke-width="1.5"/><text x="172.0" y="157.5" text-anchor="middle" fill="#111">Input n</text><g data-line="4"><rect x="107.0" y="220.0" width="130.0" height="46.0" fill="#fdfdfd" stroke="#222" stroke-width="1.5"/><text x="172.0" y="247.5" text-anchor="middle" fill="#111">a, b = 0, 1</text></g><g data-line="5"><polygon points="107.0,310.0 237.0,310.0 262.0,335.0 237.0,360.0 107.0,360.0 82.0,335.0" fill="#fdfdfd" stroke="#222" stroke-width="1.5"/><text x="172.0" y="339.5" text-anchor="middle" fill="#111">i = 0, n - 1, 1</text></g><g data-line="6"><rect x="107.0" y="404.0" width="130.0" height="46.0" fill="#fdfdfd" stroke="#222" stroke-width="1.5"/><text x="172.0" y="431.5" text-anchor="middle" fill="#111">a, b = b, a+b</text></g><g data-line="8"><rect x="107.0" y="538.0" width="130.0" height="46.0" fill="#fdfdfd" stroke="#222" stroke-width="1.5"/><text x="172.0" y="565.5" text-anchor="middle" fill="#111">Return a</text></g><rect x="107.0" y="628.0" width="130.0" height="42.0" rx="21.0" fill="#fdfdfd" stroke="#222" stroke-width="1.5"/><text x="172.0" y="653.5" text-anchor="middle" fill="#111">End</text><text x="172.0" y="732.0" text-anchor="middle" font-size="14" fill="#111">Figure 1 — Fib</text></svg>